<svg width="20" height="20" viewBox="0 0 24 24" fill="none" xmlns="http://www.w3.org/2000/svg">
<path d="M9.25293 11.5875H14.0473L20.0417 0H15.2473L9.25293 11.5875Z" fill="#006CA2"/>
<path d="M12.2493 5.79373L9.85303 10.4287L10.453 11.5875H14.0474L14.6474 10.4287L12.2493 5.79373Z" fill="#2F2F2F"/>
<path d="M14.4319 14.385H9.63562V11.5875H14.43V14.385H14.4319ZM14.4319 10.3894H9.63562C8.97375 10.3894 8.4375 10.9256 8.4375 11.5875V14.385C8.4375 15.0469 8.97375 15.5831 9.63562 15.5831H14.43C15.0919 15.5831 15.6281 15.0469 15.6281 14.385V11.5875C15.6285 11.4302 15.5979 11.2744 15.5379 11.129C15.478 10.9835 15.3899 10.8514 15.2787 10.7401C15.1676 10.6288 15.0356 10.5405 14.8903 10.4803C14.7449 10.4201 14.5892 10.3892 14.4319 10.3894" fill="#CECED2"/>
<path d="M18.0281 17.9813C18.0281 21.2925 15.3449 23.9756 12.0337 23.9756C8.72431 23.9756 6.03931 21.2925 6.03931 17.9813C6.03931 14.67 8.72243 11.9869 12.0337 11.9869C15.3449 11.9869 18.0281 14.6719 18.0281 17.9813Z" fill="#CECED2"/>
<path d="M8.01546 16.5225C7.93671 16.5225 7.85796 16.5075 7.78296 16.4737C7.49421 16.35 7.35546 16.0144 7.46796 15.7219C7.46983 15.7181 7.47171 15.7125 7.47171 15.7087C7.47358 15.6994 7.47358 15.7012 7.47921 15.6937C7.74141 15.0704 8.14791 14.5183 8.66523 14.0828C9.18256 13.6472 9.79592 13.3408 10.4548 13.1887C10.5205 13.1737 10.5898 13.2056 10.6198 13.2675C10.6498 13.3294 10.633 13.4025 10.5786 13.4456C9.70295 14.1412 9.00358 15.0787 8.55733 16.1569C8.55733 16.1587 8.55546 16.1606 8.55546 16.1606C8.55546 16.1625 8.55546 16.1625 8.55358 16.1644C8.49171 16.3087 8.37733 16.4194 8.23108 16.4775C8.16358 16.5094 8.08858 16.5225 8.01546 16.5225" fill="white"/>
<path d="M14.4487 11.5875H9.65241L3.65991 0H8.45429L14.4487 11.5875Z" fill="#006CA2"/>
<path d="M13.8112 19.4775H11.7993C12.1162 19.2843 12.6693 18.9 13.2993 18.27C13.89 17.6812 14.0868 16.6068 13.3818 15.9C12.9731 15.4931 12.5081 15.285 12 15.285C10.8768 15.285 9.93933 16.2787 9.89996 16.32C9.87558 16.3462 9.86996 16.3875 9.89058 16.4193L10.3968 17.2462C10.41 17.2668 10.4325 17.2818 10.4568 17.2837C10.4812 17.2875 10.5056 17.28 10.5243 17.2612C10.53 17.2556 11.1412 16.6893 11.6775 16.6893C11.8931 16.6893 12.0618 16.7793 12.1931 16.9668C12.3 17.1187 12.3318 17.2875 12.2906 17.4787C12.0862 18.3937 10.2806 19.4287 10.2618 19.44C10.2494 19.4473 10.2391 19.4578 10.2319 19.4702C10.2247 19.4827 10.2208 19.4968 10.2206 19.5112V20.5931C10.2206 20.64 10.2581 20.6756 10.3031 20.6756H13.8131C13.8581 20.6756 13.8956 20.6381 13.8956 20.5931V19.5581C13.8946 19.5364 13.8852 19.5159 13.8695 19.5009C13.8538 19.4859 13.8329 19.4775 13.8112 19.4775Z" fill="#77A2AD"/>
</svg>
