<svg width="24" height="24" viewBox="0 0 24 24" fill="none" xmlns="http://www.w3.org/2000/svg">
<path fill-rule="evenodd" clip-rule="evenodd" d="M1.5 12.0001C1.5 11.8012 1.57902 11.6104 1.71967 11.4697C1.86032 11.3291 2.05109 11.2501 2.25 11.2501H19.9395L15.219 6.53107C15.0782 6.39024 14.9991 6.19924 14.9991 6.00007C14.9991 5.80091 15.0782 5.6099 15.219 5.46907C15.3598 5.32824 15.5508 5.24912 15.75 5.24912C15.9492 5.24912 16.1402 5.32824 16.281 5.46907L22.281 11.4691C22.3508 11.5387 22.4063 11.6215 22.4441 11.7126C22.4819 11.8037 22.5013 11.9014 22.5013 12.0001C22.5013 12.0987 22.4819 12.1964 22.4441 12.2875C22.4063 12.3786 22.3508 12.4614 22.281 12.5311L16.281 18.5311C16.1402 18.6719 15.9492 18.751 15.75 18.751C15.5508 18.751 15.3598 18.6719 15.219 18.5311C15.0782 18.3902 14.9991 18.1992 14.9991 18.0001C14.9991 17.8009 15.0782 17.6099 15.219 17.4691L19.9395 12.7501H2.25C2.05109 12.7501 1.86032 12.6711 1.71967 12.5304C1.57902 12.3898 1.5 12.199 1.5 12.0001Z" fill="black"/>
</svg>
