<svg width="16" height="16" viewBox="0 0 16 16" fill="none" xmlns="http://www.w3.org/2000/svg">
<path d="M6 7.33337H4.66667V8.66671H6V7.33337ZM8.66667 7.33337H7.33333V8.66671H8.66667V7.33337ZM11.3333 7.33337H10V8.66671H11.3333V7.33337ZM12.6667 2.66671H12V1.33337H10.6667V2.66671H5.33333V1.33337H4V2.66671H3.33333C2.59333 2.66671 2.00667 3.26671 2.00667 4.00004L2 13.3334C2 13.687 2.14048 14.0261 2.39052 14.2762C2.64057 14.5262 2.97971 14.6667 3.33333 14.6667H12.6667C13.4 14.6667 14 14.0667 14 13.3334V4.00004C14 3.26671 13.4 2.66671 12.6667 2.66671ZM12.6667 13.3334H3.33333V6.00004H12.6667V13.3334Z" fill="black"/>
</svg>
