<svg width="24" height="24" viewBox="0 0 24 24" fill="none" xmlns="http://www.w3.org/2000/svg">
<path d="M12.9401 12L18.4667 6.47329C18.5759 6.34576 18.633 6.18171 18.6265 6.01393C18.6201 5.84614 18.5505 5.68698 18.4318 5.56825C18.313 5.44952 18.1539 5.37997 17.9861 5.37349C17.8183 5.36701 17.6543 5.42408 17.5267 5.53329L12.0001 11.06L6.4734 5.52663C6.34786 5.40109 6.1776 5.33057 6.00006 5.33057C5.82253 5.33057 5.65227 5.40109 5.52673 5.52663C5.40119 5.65216 5.33067 5.82243 5.33067 5.99996C5.33067 6.1775 5.40119 6.34776 5.52673 6.47329L11.0601 12L5.52673 17.5266C5.45694 17.5864 5.40026 17.6599 5.36025 17.7426C5.32023 17.8254 5.29774 17.9154 5.2942 18.0073C5.29065 18.0991 5.30612 18.1906 5.33964 18.2762C5.37315 18.3617 5.42399 18.4394 5.48896 18.5044C5.55393 18.5694 5.63163 18.6202 5.71718 18.6537C5.80273 18.6872 5.89429 18.7027 5.9861 18.6992C6.07791 18.6956 6.168 18.6731 6.25071 18.6331C6.33342 18.5931 6.40697 18.5364 6.46673 18.4666L12.0001 12.94L17.5267 18.4666C17.6543 18.5758 17.8183 18.6329 17.9861 18.6264C18.1539 18.62 18.313 18.5504 18.4318 18.4317C18.5505 18.3129 18.6201 18.1538 18.6265 17.986C18.633 17.8182 18.5759 17.6542 18.4667 17.5266L12.9401 12Z" fill="black"/>
</svg>
