<svg width="49" height="49" viewBox="0 0 49 49" fill="none" xmlns="http://www.w3.org/2000/svg">
<rect x="4" y="5" width="40" height="40" rx="20" fill="white" fill-opacity="0.6"/>
<path fill-rule="evenodd" clip-rule="evenodd" d="M21.744 17.7441C21.9003 17.5878 22.1123 17.5 22.3333 17.5H25.6666C25.8876 17.5 26.0996 17.5878 26.2559 17.7441C26.4122 17.9004 26.5 18.1123 26.5 18.3333V19.1667H21.5V18.3333C21.5 18.1123 21.5878 17.9004 21.744 17.7441ZM19.8333 19.1667V18.3333C19.8333 17.6703 20.0967 17.0344 20.5655 16.5656C21.0344 16.0967 21.6703 15.8333 22.3333 15.8333H25.6666C26.3297 15.8333 26.9656 16.0967 27.4344 16.5656C27.9032 17.0344 28.1666 17.6703 28.1666 18.3333V19.1667H29.8333H31.5C31.9602 19.1667 32.3333 19.5398 32.3333 20C32.3333 20.4602 31.9602 20.8333 31.5 20.8333H30.6666V31.6667C30.6666 32.3297 30.4032 32.9656 29.9344 33.4344C29.4656 33.9033 28.8297 34.1667 28.1666 34.1667H19.8333C19.1703 34.1667 18.5344 33.9033 18.0655 33.4344C17.5967 32.9656 17.3333 32.3297 17.3333 31.6667V20.8333H16.5C16.0397 20.8333 15.6666 20.4602 15.6666 20C15.6666 19.5398 16.0397 19.1667 16.5 19.1667H18.1666H19.8333ZM19 20.8333V31.6667C19 31.8877 19.0878 32.0996 19.244 32.2559C19.4003 32.4122 19.6123 32.5 19.8333 32.5H28.1666C28.3876 32.5 28.5996 32.4122 28.7559 32.2559C28.9122 32.0996 29 31.8877 29 31.6667V20.8333H19ZM22.3333 23.3333C22.7935 23.3333 23.1666 23.7064 23.1666 24.1667V29.1667C23.1666 29.6269 22.7935 30 22.3333 30C21.8731 30 21.5 29.6269 21.5 29.1667V24.1667C21.5 23.7064 21.8731 23.3333 22.3333 23.3333ZM26.5 29.1667V24.1667C26.5 23.7064 26.1269 23.3333 25.6666 23.3333C25.2064 23.3333 24.8333 23.7064 24.8333 24.1667V29.1667C24.8333 29.6269 25.2064 30 25.6666 30C26.1269 30 26.5 29.6269 26.5 29.1667Z" fill="#190134"/>
</svg>
