<svg width="20" height="20" viewBox="0 0 20 20" fill="none" xmlns="http://www.w3.org/2000/svg">
<path d="M4.16667 16.6667C4.16667 17.1088 4.34226 17.5327 4.65482 17.8453C4.96738 18.1578 5.39131 18.3334 5.83333 18.3334H14.1667C14.6087 18.3334 15.0326 18.1578 15.3452 17.8453C15.6577 17.5327 15.8333 17.1088 15.8333 16.6667V6.66675H17.5V5.00008H14.1667V3.33341C14.1667 2.89139 13.9911 2.46746 13.6785 2.1549C13.3659 1.84234 12.942 1.66675 12.5 1.66675H7.5C7.05797 1.66675 6.63405 1.84234 6.32149 2.1549C6.00893 2.46746 5.83333 2.89139 5.83333 3.33341V5.00008H2.5V6.66675H4.16667V16.6667ZM7.5 3.33341H12.5V5.00008H7.5V3.33341ZM6.66667 6.66675H14.1667V16.6667H5.83333V6.66675H6.66667Z" fill="black"/>
<path d="M7.5 8.33325H9.16667V14.9999H7.5V8.33325ZM10.8333 8.33325H12.5V14.9999H10.8333V8.33325Z" fill="black"/>
</svg>
