<svg width="49" height="49" viewBox="0 0 49 49" fill="none" xmlns="http://www.w3.org/2000/svg">
<rect x="0.233276" y="0.400002" width="48" height="48" rx="24" fill="white"/>
<path fill-rule="evenodd" clip-rule="evenodd" d="M21.9773 17.1441C22.1336 16.9878 22.3456 16.9 22.5666 16.9H25.8999C26.1209 16.9 26.3329 16.9878 26.4892 17.1441C26.6454 17.3004 26.7332 17.5123 26.7332 17.7333V18.5667H21.7332V17.7333C21.7332 17.5123 21.821 17.3004 21.9773 17.1441ZM20.0666 18.5667V17.7333C20.0666 17.0703 20.33 16.4344 20.7988 15.9656C21.2676 15.4967 21.9035 15.2333 22.5666 15.2333H25.8999C26.5629 15.2333 27.1988 15.4967 27.6677 15.9656C28.1365 16.4344 28.3999 17.0703 28.3999 17.7333V18.5667H30.0666H31.7332C32.1935 18.5667 32.5666 18.9398 32.5666 19.4C32.5666 19.8602 32.1935 20.2333 31.7332 20.2333H30.8999V31.0667C30.8999 31.7297 30.6365 32.3656 30.1677 32.8344C29.6988 33.3033 29.0629 33.5667 28.3999 33.5667H20.0666C19.4035 33.5667 18.7676 33.3033 18.2988 32.8344C17.83 32.3656 17.5666 31.7297 17.5666 31.0667V20.2333H16.7332C16.273 20.2333 15.8999 19.8602 15.8999 19.4C15.8999 18.9398 16.273 18.5667 16.7332 18.5667H18.3999H20.0666ZM19.2332 20.2333V31.0667C19.2332 31.2877 19.321 31.4996 19.4773 31.6559C19.6336 31.8122 19.8456 31.9 20.0666 31.9H28.3999C28.6209 31.9 28.8329 31.8122 28.9892 31.6559C29.1454 31.4996 29.2332 31.2877 29.2332 31.0667V20.2333H19.2332ZM22.5666 22.7333C23.0268 22.7333 23.3999 23.1064 23.3999 23.5667V28.5667C23.3999 29.0269 23.0268 29.4 22.5666 29.4C22.1063 29.4 21.7332 29.0269 21.7332 28.5667V23.5667C21.7332 23.1064 22.1063 22.7333 22.5666 22.7333ZM26.7332 28.5667V23.5667C26.7332 23.1064 26.3601 22.7333 25.8999 22.7333C25.4397 22.7333 25.0666 23.1064 25.0666 23.5667V28.5667C25.0666 29.0269 25.4397 29.4 25.8999 29.4C26.3601 29.4 26.7332 29.0269 26.7332 28.5667Z" fill="#190134"/>
</svg>
