<svg width="18" height="19" viewBox="0 0 18 19" fill="none" xmlns="http://www.w3.org/2000/svg">
<path fill-rule="evenodd" clip-rule="evenodd" d="M6.64431 2.14414C6.80059 1.98786 7.01255 1.90006 7.23356 1.90006H10.5669C10.7879 1.90006 10.9999 1.98786 11.1562 2.14414C11.3124 2.30042 11.4002 2.51238 11.4002 2.7334V3.56673H6.40023V2.7334C6.40023 2.51238 6.48803 2.30042 6.64431 2.14414ZM4.73356 3.56673V2.7334C4.73356 2.07036 4.99695 1.43447 5.46579 0.965631C5.93464 0.49679 6.57052 0.233398 7.23356 0.233398H10.5669C11.2299 0.233398 11.8658 0.49679 12.3347 0.965631C12.8035 1.43447 13.0669 2.07036 13.0669 2.7334V3.56673H14.7336H16.4002C16.8605 3.56673 17.2336 3.93983 17.2336 4.40006C17.2336 4.8603 16.8605 5.2334 16.4002 5.2334H15.5669V16.0667C15.5669 16.7298 15.3035 17.3657 14.8347 17.8345C14.3658 18.3033 13.7299 18.5667 13.0669 18.5667H4.73356C4.07052 18.5667 3.43464 18.3033 2.96579 17.8345C2.49695 17.3657 2.23356 16.7298 2.23356 16.0667V5.2334H1.40023C0.939991 5.2334 0.566895 4.8603 0.566895 4.40006C0.566895 3.93983 0.939991 3.56673 1.40023 3.56673H3.06689H4.73356ZM3.90023 5.2334V16.0667C3.90023 16.2877 3.98803 16.4997 4.14431 16.656C4.30059 16.8123 4.51255 16.9001 4.73356 16.9001H13.0669C13.2879 16.9001 13.4999 16.8123 13.6562 16.656C13.8124 16.4997 13.9002 16.2877 13.9002 16.0667V5.2334H3.90023ZM7.23356 7.7334C7.6938 7.7334 8.06689 8.10649 8.06689 8.56673V13.5667C8.06689 14.027 7.6938 14.4001 7.23356 14.4001C6.77332 14.4001 6.40023 14.027 6.40023 13.5667V8.56673C6.40023 8.10649 6.77332 7.7334 7.23356 7.7334ZM11.4002 13.5667V8.56673C11.4002 8.10649 11.0271 7.7334 10.5669 7.7334C10.1067 7.7334 9.73356 8.10649 9.73356 8.56673V13.5667C9.73356 14.027 10.1067 14.4001 10.5669 14.4001C11.0271 14.4001 11.4002 14.027 11.4002 13.5667Z" fill="#190134"/>
</svg>
