<svg width="27" height="24" viewBox="0 0 27 24" fill="none" xmlns="http://www.w3.org/2000/svg">
<path d="M13.6189 3C19.7465 3 24.7139 6.664 24.7139 11.185C24.7139 15.705 19.7465 19.369 13.6189 19.369C13.0088 19.3693 12.3992 19.3326 11.7941 19.259L7.13628 22.142C6.60689 22.407 6.41986 22.378 6.63753 21.729L7.58008 18.051C4.53688 16.591 2.52393 14.061 2.52393 11.185C2.52393 6.665 7.49132 3 13.6189 3ZM19.8607 11.06L21.414 9.636C21.5036 9.54791 21.5536 9.43033 21.5534 9.30804C21.5533 9.18575 21.503 9.0683 21.4131 8.98041C21.3233 8.89252 21.2009 8.84107 21.0717 8.83689C20.9426 8.83271 20.8168 8.87613 20.7208 8.958L18.6835 10.824V9.282C18.6835 9.15682 18.631 9.03676 18.5374 8.94825C18.4439 8.85973 18.3171 8.81 18.1848 8.81C18.0525 8.81 17.9256 8.85973 17.8321 8.94825C17.7386 9.03676 17.686 9.15682 17.686 9.282V11.839C17.6673 11.9119 17.6673 11.9881 17.686 12.061V13.5C17.686 13.6252 17.7386 13.7452 17.8321 13.8338C17.9256 13.9223 18.0525 13.972 18.1848 13.972C18.3171 13.972 18.4439 13.9223 18.5374 13.8338C18.631 13.7452 18.6835 13.6252 18.6835 13.5V12.137L19.1347 11.724L20.6436 13.757C20.6813 13.8078 20.7292 13.851 20.7845 13.8842C20.8398 13.9175 20.9016 13.9401 20.9661 13.9508C21.0307 13.9615 21.0968 13.96 21.1608 13.9465C21.2248 13.933 21.2853 13.9077 21.3389 13.872C21.3926 13.8363 21.4382 13.791 21.4734 13.7387C21.5085 13.6863 21.5324 13.6279 21.5437 13.5668C21.555 13.5057 21.5534 13.4431 21.5391 13.3826C21.5249 13.322 21.4981 13.2648 21.4604 13.214L19.8607 11.059V11.06ZM16.735 12.984H15.1923V9.297C15.1864 9.17571 15.1313 9.06123 15.0385 8.97737C14.9458 8.89351 14.8224 8.84672 14.6941 8.84672C14.5658 8.84672 14.4424 8.89351 14.3496 8.97737C14.2568 9.06123 14.2018 9.17571 14.1959 9.297V13.456C14.1959 13.716 14.4178 13.928 14.6936 13.928H16.735C16.8673 13.928 16.9942 13.8783 17.0877 13.7898C17.1812 13.7012 17.2338 13.5812 17.2338 13.456C17.2338 13.3308 17.1812 13.2108 17.0877 13.1222C16.9942 13.0337 16.8673 12.984 16.735 12.984ZM10.5461 11.892L11.2816 10.185L11.9557 11.892H10.5461ZM13.2121 12.38L13.2142 12.364C13.214 12.2451 13.166 12.1307 13.08 12.044L11.9748 9.244C11.9284 9.11057 11.8402 8.99369 11.7218 8.90899C11.6034 8.8243 11.4605 8.7758 11.3122 8.77C11.1629 8.76938 11.0168 8.81182 10.8936 8.89167C10.7703 8.97152 10.6757 9.08499 10.6222 9.217L8.86709 13.292C8.84233 13.3494 8.82974 13.4108 8.83007 13.4728C8.83039 13.5348 8.84361 13.5961 8.86897 13.6533C8.89434 13.7104 8.93135 13.7623 8.97789 13.8059C9.02444 13.8495 9.0796 13.8841 9.14024 13.9075C9.20088 13.9309 9.26581 13.9428 9.33131 13.9425C9.39681 13.9422 9.46161 13.9297 9.522 13.9057C9.5824 13.8817 9.6372 13.8467 9.68329 13.8026C9.72938 13.7586 9.76585 13.7064 9.79062 13.649L10.1393 12.836H12.3266L12.6426 13.636C12.664 13.6958 12.698 13.7509 12.7424 13.7981C12.7868 13.8452 12.8407 13.8835 12.901 13.9105C12.9613 13.9376 13.0267 13.9529 13.0934 13.9557C13.1601 13.9584 13.2267 13.9484 13.2892 13.9263C13.3517 13.9042 13.4089 13.8704 13.4574 13.8271C13.5059 13.7837 13.5447 13.7315 13.5715 13.6737C13.5983 13.6158 13.6126 13.5535 13.6135 13.4903C13.6144 13.4272 13.6018 13.3645 13.5767 13.306L13.2121 12.38ZM9.70186 9.302C9.70186 9.17699 9.64946 9.05709 9.55616 8.9686C9.46285 8.88011 9.33626 8.83026 9.20417 8.83H5.77529C5.64301 8.83 5.51616 8.87973 5.42262 8.96825C5.32909 9.05676 5.27654 9.17682 5.27654 9.302C5.27654 9.42718 5.32909 9.54724 5.42262 9.63575C5.51616 9.72427 5.64301 9.774 5.77529 9.774H7.00102V13.51C7.00102 13.6352 7.05357 13.7552 7.1471 13.8438C7.24063 13.9323 7.36749 13.982 7.49977 13.982C7.63204 13.982 7.7589 13.9323 7.85244 13.8438C7.94597 13.7552 7.99852 13.6352 7.99852 13.51V9.774H9.20312C9.33539 9.774 9.46225 9.72427 9.55578 9.63575C9.64932 9.54724 9.70186 9.42718 9.70186 9.302Z" fill="black"/>
</svg>
