<svg width="18" height="18" viewBox="0 0 18 18" fill="none" xmlns="http://www.w3.org/2000/svg">
<path d="M17.7188 8.75C17.7188 3.96875 13.7812 0.03125 9 0.03125C4.18359 0.03125 0.28125 3.96875 0.28125 8.75C0.28125 13.5664 4.18359 17.4688 9 17.4688C13.7812 17.4688 17.7188 13.5664 17.7188 8.75ZM7.98047 13.3906C7.76953 13.6016 7.38281 13.6016 7.17188 13.3906L3.51562 9.73438C3.30469 9.52344 3.30469 9.13672 3.51562 8.92578L4.32422 8.15234C4.53516 7.90625 4.88672 7.90625 5.09766 8.15234L7.59375 10.6133L12.8672 5.33984C13.0781 5.09375 13.4297 5.09375 13.6406 5.33984L14.4492 6.11328C14.6602 6.32422 14.6602 6.71094 14.4492 6.92188L7.98047 13.3906Z" fill="#EB3901"/>
</svg>
