<svg width="24" height="24" viewBox="0 0 24 24" fill="none" xmlns="http://www.w3.org/2000/svg">
<path d="M9.16309 11.5912H13.9593L19.9556 0H15.1593L9.16309 11.5912Z" fill="#006CA2"/>
<path d="M12.1613 5.79562L9.76318 10.4325L10.3632 11.5912H13.9594L14.5594 10.4325L12.1613 5.79562Z" fill="#2F2F2F"/>
<path d="M14.3437 14.3906H9.54741V11.5913H14.3437V14.3906ZM14.3437 10.3931H9.54741C9.22915 10.3931 8.92393 10.5196 8.69888 10.7446C8.47384 10.9696 8.34741 11.2749 8.34741 11.5931V14.3906C8.34741 14.7089 8.47384 15.0141 8.69888 15.2392C8.92393 15.4642 9.22915 15.5906 9.54741 15.5906H14.3437C15.0055 15.5906 15.5418 15.0544 15.5418 14.3906V11.5913C15.5418 10.9294 15.0055 10.3931 14.3437 10.3931Z" fill="#FCC21B"/>
<path d="M17.94 17.9868C17.94 21.2981 15.255 23.9831 11.9438 23.9831C8.63251 23.9831 5.94751 21.3 5.94751 17.9868C5.94751 14.6737 8.63251 11.9906 11.9438 11.9906C15.2569 11.9906 17.94 14.6756 17.94 17.9868Z" fill="#FCC21B"/>
<path d="M7.92561 16.5281C7.84686 16.5281 7.76811 16.5131 7.69311 16.4794C7.40436 16.3556 7.26561 16.02 7.37811 15.7294C7.37999 15.7256 7.38186 15.72 7.38186 15.7163C7.38374 15.7069 7.38561 15.7088 7.38936 15.7013C7.91999 14.4375 9.03186 13.5038 10.3669 13.1944C10.4325 13.1794 10.5019 13.2113 10.5319 13.2731C10.5619 13.335 10.545 13.41 10.4906 13.4531C9.61499 14.1488 8.91561 15.0863 8.46936 16.1663C8.46936 16.1681 8.46749 16.17 8.46749 16.17C8.46749 16.17 8.46749 16.1719 8.46561 16.1719C8.40374 16.3163 8.28936 16.4288 8.14311 16.485C8.07374 16.515 7.99874 16.5281 7.92561 16.5281Z" fill="white"/>
<path d="M14.3606 11.5912H9.56249L3.56812 0H8.36437L14.3606 11.5912Z" fill="#006CA2"/>
<path d="M10.7814 16.7644L11.3383 16.605V19.6631H10.9089C10.8621 19.6631 10.8264 19.7006 10.8264 19.7456V20.7919C10.8264 20.8369 10.8621 20.8744 10.9089 20.8744H13.1308C13.1758 20.8744 13.2133 20.8369 13.2133 20.7919V19.7456C13.2133 19.7006 13.1758 19.6631 13.1308 19.6631H12.7014V15.1837C12.7014 15.1594 12.6902 15.135 12.6696 15.12C12.66 15.1122 12.6488 15.1067 12.6368 15.1037C12.6248 15.1008 12.6123 15.1006 12.6002 15.1031L10.7402 15.5025C10.7027 15.5119 10.6746 15.5437 10.6746 15.5831V16.6856C10.6746 16.71 10.6858 16.7362 10.7064 16.7512C10.7308 16.7662 10.7571 16.77 10.7814 16.7644Z" fill="#F79329"/>
</svg>
