<svg width="24" height="24" viewBox="0 0 24 24" fill="none" xmlns="http://www.w3.org/2000/svg">
<path d="M9.40112 11.5969H14.1992L20.1974 0H15.3992L9.40112 11.5969Z" fill="#006CA2"/>
<path d="M12.3993 5.79752L10.0012 10.4381L10.6012 11.5969H14.1993L14.7993 10.4381L12.3993 5.79752Z" fill="#2F2F2F"/>
<path d="M14.5819 14.3962H9.78374V11.5969H14.5819V14.3962ZM14.5819 10.3969H9.78374C9.46548 10.3969 9.16026 10.5233 8.93521 10.7483C8.71017 10.9734 8.58374 11.2786 8.58374 11.5969V14.3962C8.58374 15.06 9.11999 15.5962 9.78374 15.5962H14.5819C15.2456 15.5962 15.7819 15.06 15.7819 14.3962V11.5969C15.7819 10.9331 15.2456 10.3969 14.5819 10.3969Z" fill="#F79329"/>
<path d="M18.1818 17.9944C18.1818 21.3075 15.4968 23.9925 12.1837 23.9925C8.87055 23.9925 6.18555 21.3075 6.18555 17.9944C6.18555 14.6813 8.87055 11.9963 12.1837 11.9963C15.4968 11.9963 18.1818 14.6832 18.1818 17.9944Z" fill="#F79329"/>
<path d="M8.1617 16.5356C8.08295 16.5356 8.0042 16.5206 7.9292 16.4869C7.64045 16.3631 7.5017 16.0275 7.6142 15.735C7.61607 15.7294 7.61795 15.7256 7.61982 15.7219C7.6217 15.7125 7.6217 15.7144 7.62732 15.7069C7.88984 15.0832 8.29664 14.5308 8.81426 14.095C9.33189 13.6592 9.94556 13.3524 10.6048 13.2C10.6704 13.185 10.7398 13.2169 10.7698 13.2787C10.7998 13.3406 10.7829 13.4156 10.7286 13.4587C9.85295 14.1544 9.15357 15.0937 8.70545 16.1719C8.70545 16.1737 8.70357 16.1756 8.70357 16.1756C8.70357 16.1775 8.70357 16.1775 8.7017 16.1794C8.63982 16.3237 8.52545 16.4362 8.3792 16.4925C8.30982 16.5225 8.23482 16.5356 8.1617 16.5356Z" fill="white"/>
<path d="M14.5987 11.5969H9.80061L3.80249 0H8.60061L14.5987 11.5969Z" fill="#006CA2"/>
<path d="M12.1312 20.9719H12.1612C12.5006 20.9663 13.1437 20.8913 13.635 20.4506C14.0437 20.0831 14.2331 19.5806 14.1562 19.0706C14.0831 18.5963 13.7849 18.1931 13.3293 17.9438C13.7662 17.6156 14.0287 17.205 14.0737 16.7775C14.1187 16.3631 13.9556 15.9506 13.6049 15.5831C13.2524 15.2138 12.7762 15.0188 12.2306 15.0188C11.3887 15.0188 10.6143 15.4631 10.38 15.7856C10.3593 15.8119 10.3593 15.8494 10.3781 15.8794L10.9012 16.635C10.9143 16.6538 10.9331 16.6669 10.9556 16.6688C10.9762 16.6725 11.0006 16.6669 11.0175 16.6519C11.0231 16.6481 11.5912 16.1813 12.0768 16.1813C12.2981 16.1813 12.4612 16.2788 12.5775 16.4775C12.6731 16.6444 12.6918 16.7963 12.6337 16.9425C12.4743 17.3363 11.7993 17.5369 11.7937 17.5388C11.76 17.5481 11.7356 17.58 11.7356 17.6156V18.2813C11.7356 18.3188 11.76 18.3506 11.7975 18.3581C11.805 18.36 12.4462 18.5194 12.5925 18.8869C12.6506 19.0313 12.6206 19.1944 12.5062 19.3725C12.3843 19.56 12.2006 19.6556 11.9587 19.6556C11.49 19.6556 10.9162 19.2994 10.665 19.0763C10.6566 19.0688 10.6468 19.0632 10.6361 19.0596C10.6255 19.0561 10.6142 19.0547 10.6031 19.0556C10.5787 19.0575 10.56 19.0706 10.5468 19.0894L10.0237 19.845C10.0031 19.875 10.005 19.9144 10.0293 19.9425C10.0612 19.9856 10.9162 20.9719 12.1312 20.9719Z" fill="#AE3D09"/>
</svg>
