<svg width="67" height="32" viewBox="0 0 67 32" fill="none" xmlns="http://www.w3.org/2000/svg">
<path d="M14.16 14.56C10.68 13.408 9.192 10.648 9.192 7.912V6.088H5.976V7.984C5.976 10.96 4.44 13.912 0.744 15.16L2.4 17.632C4.968 16.744 6.696 15.016 7.656 12.784C8.616 14.704 10.2 16.24 12.504 17.032L14.16 14.56ZM7.176 21.112H15.336V24.328H7.176V21.112ZM4.056 26.8H18.432V18.616H4.056V26.8ZM21.36 9.952H18.432V4.96H15.264V17.728H18.432V12.568H21.36V9.952ZM30.3661 6.88H27.3181V10.6C27.3181 14.368 26.1421 18.328 22.9021 20.296L24.7981 22.672C26.7901 21.472 28.0861 19.36 28.8541 16.912C29.5501 19.144 30.7261 21.016 32.5981 22.168L34.3261 19.72C31.3261 17.728 30.3661 14.056 30.3661 10.48V6.88ZM34.7821 12.424H31.9981V14.992H34.7821V26.08H37.7341V5.32H34.7821V12.424ZM39.2701 4.96V27.064H42.2701V4.96H39.2701ZM53.8683 15.328H49.6683V12.208H53.8683V15.328ZM56.9643 13.384H60.9003V21.28H64.0683V4.984H60.9003V10.84H56.9643V6.448H53.8683V9.784H49.6683V6.424H46.5243V17.848H56.9643V13.384ZM52.6443 24.16V19.696H49.4763V26.68H64.5483V24.16H52.6443Z" fill="#FF3D00"/>
</svg>
